<?xml version="1.0" encoding="UTF-8"?>
<svg width="93px" height="27px" viewBox="0 0 93 27" version="1.1" xmlns="http://www.w3.org/2000/svg" xmlns:xlink="http://www.w3.org/1999/xlink">
    <!-- Generator: Sketch 49.2 (51160) - http://www.bohemiancoding.com/sketch -->
    <title>Page 1</title>
    <desc>Created with Sketch.</desc>
    <defs></defs>
    <g id="Page-1" stroke="none" stroke-width="1" fill="none" fill-rule="evenodd">
        <g id="Dashboard" transform="translate(-15.000000, -18.000000)" fill="#FEFEFE">
            <g id="Page-1" transform="translate(15.000000, 18.000000)">
                <path d="M13,8.5773185 L9.21166863,8.5773185 L9.21166863,7.75125082 C9.21166863,6.91365661 9.00729289,6.18913213 8.59854142,5.57877515 C8.18978995,4.96786928 7.50286039,4.66269079 6.53718503,4.66269079 C6.01716232,4.66269079 5.58967641,4.75874517 5.25529499,4.95030505 C4.92148129,5.14186493 4.66146993,5.38721527 4.47526093,5.68635606 C4.28961963,5.98604573 4.15961396,6.33293926 4.0852439,6.72758555 C4.01144155,7.12278072 3.97397266,7.536089 3.97397266,7.96696151 C3.97397266,8.46973759 3.99270711,8.89512128 4.02960828,9.24146594 C4.06707716,9.58890836 4.15961396,9.88804915 4.30835408,10.1394372 C4.4570942,10.3908252 4.67339185,10.6125736 4.95838246,10.8035846 C5.24280536,10.9956934 5.63282239,11.1867044 6.12843356,11.3782643 L9.02602734,12.4913973 C9.86680641,12.8031624 10.5486266,13.1681691 11.0686493,13.5869662 C11.588672,14.0063121 11.9906109,14.4970128 12.2756016,15.059617 C12.5600245,15.6222213 12.7519106,16.2688045 12.8512599,16.9982689 C12.9500415,17.7288311 13,18.5603876 13,19.4945851 C13,20.5720408 12.8887288,21.5715552 12.6656186,22.4931284 C12.4430761,23.4152505 12.0774706,24.2050919 11.5699376,24.8632017 C11.0618368,25.5218603 10.3868291,26.0427495 9.54605005,26.4253204 C8.70356784,26.8078912 7.67601205,27 6.46281497,27 C5.54653042,27 4.69212629,26.8441175 3.8996026,26.5329013 C3.10707891,26.222234 2.42639417,25.7968503 1.85698065,25.2583968 C1.28699943,24.7193945 0.83566968,24.0793979 0.501288266,23.3367603 C0.166906852,22.5952205 0,21.7927548 0,20.9310097 L0,19.5664886 L3.78833137,19.5664886 L3.78833137,20.715299 C3.78833137,21.3860331 3.99270711,21.9903523 4.40145858,22.5288058 C4.80964234,23.0678081 5.49713961,23.3367603 6.46281497,23.3367603 C7.10659854,23.3367603 7.60788681,23.2472925 7.96724748,23.0678081 C8.32604044,22.8883236 8.59854142,22.6369355 8.78418272,22.3136439 C8.96982401,21.9903523 9.08734006,21.5896683 9.13729857,21.1104942 C9.18668938,20.6318689 9.21166863,20.1049421 9.21166863,19.5302624 C9.21166863,18.8600773 9.18668938,18.3089996 9.13729857,17.878127 C9.08734006,17.4472545 8.98231364,17.100361 8.8216516,16.8368975 C8.65985414,16.5734341 8.43731167,16.3582723 8.15288877,16.1903143 C7.86789816,16.0234542 7.48980305,15.8439697 7.01973885,15.6518609 L4.30835408,14.5744052 C2.67391589,13.9283709 1.57823486,13.0721147 1.02131097,12.0067344 C0.463819381,10.9419029 0.185641294,9.60647259 0.185641294,8.00263886 C0.185641294,7.04538833 0.321324075,6.13534168 0.593825058,5.27304777 C0.86632604,4.41130275 1.26826499,3.66976293 1.80134504,3.04678165 C2.33328966,2.42434926 3.00829731,1.92815977 3.82523254,1.55656653 C4.64273549,1.18552218 5.59592122,1 6.68535744,1 C7.62662125,1 8.48727019,1.16740907 9.26730425,1.50277608 C10.0467706,1.83814309 10.7155334,2.28054213 11.273025,2.83107095 C11.8299489,3.38214866 12.2568671,3.99854335 12.5543474,4.6808039 C12.8512599,5.36306445 13,6.06343811 13,6.78192489 L13,8.5773185 Z" id="Fill-1"></path>
                <polygon id="Fill-3" points="17.1892014 4.50562425 13 4.50562425 13 1 25 1 25 4.50562425 20.8107986 4.50562425 20.8107986 27 17.1892014 27"></polygon>
                <path d="M39.1933358,20.8411294 C39.1933358,21.6794824 39.0372301,22.4574431 38.7255685,23.1755608 C38.4139069,23.8942275 37.988464,24.5228549 37.4492399,25.0614431 C36.9094661,25.6005804 36.2806461,26.0260706 35.561131,26.3368157 C34.8416158,26.6481098 34.0742796,26.8040314 33.2596719,26.8040314 C32.4439649,26.8040314 31.6771783,26.6481098 30.9576631,26.3368157 C30.238148,26.0260706 29.6087784,25.6005804 29.0701039,25.0614431 C28.5303301,24.5228549 28.1043376,23.8942275 27.7932256,23.1755608 C27.4810143,22.4574431 27.3254583,21.6794824 27.3254583,20.8411294 L27.3254583,1.01273725 L30.9939412,1.01273725 L30.9939412,20.4820706 C30.9939412,21.3923451 31.209411,22.062698 31.6409002,22.4936784 C32.0723894,22.9246588 32.6121632,23.1398745 33.2596719,23.1398745 C33.9066309,23.1398745 34.4464047,22.9246588 34.8778939,22.4936784 C35.3093831,22.062698 35.5254026,21.3923451 35.5254026,20.4820706 L35.5254026,1.01273725 L39.1933358,1.01273725 L39.1933358,20.8411294 Z" id="Fill-5"></path>
                <path d="M45.7089393,23.4943758 L47.4180639,23.4943758 C48.4602131,23.4943758 49.2,23.2331702 49.6363131,22.7096428 C50.073182,22.1861154 50.2910607,21.3645458 50.2910607,20.2443758 L50.2910607,7.7193457 C50.2910607,6.6968487 50.0848541,5.9059763 49.6729968,5.34561223 C49.2605836,4.78580629 48.5091246,4.50562425 47.4180639,4.50562425 L45.7089393,4.50562425 L45.7089393,23.4943758 Z M42,1 L47.4908754,1 C49.6001853,1 51.2120426,1.59050318 52.3275591,2.7709514 C53.4425197,3.95195775 54,5.60123648 54,7.7193457 L54,19.8793577 C54,22.3139275 53.41195,24.1094367 52.2364057,25.2653272 C51.0603057,26.4223338 49.3695229,27 47.1635016,27 L42,27 L42,1 Z" id="Fill-8"></path>
                <polygon id="Fill-10" points="57 27 61 27 61 1 57 1"></polygon>
                <path d="M66.579192,20.7515253 C66.579192,21.6374211 66.8183768,22.290042 67.2983554,22.7088391 C67.7772614,23.1281851 68.344655,23.3367603 69,23.3367603 C69.6542724,23.3367603 70.2222024,23.1281851 70.7016446,22.7088391 C71.1810869,22.290042 71.420808,21.6374211 71.420808,20.7515253 L71.420808,7.24847474 C71.420808,6.36312778 71.1810869,5.71050687 70.7016446,5.29116089 C70.2222024,4.87291266 69.6542724,4.66269079 69,4.66269079 C68.344655,4.66269079 67.7772614,4.87291266 67.2983554,5.29116089 C66.8183768,5.71050687 66.579192,6.36312778 66.579192,7.24847474 L66.579192,20.7515253 Z M63,7.24847474 C63,6.21932065 63.1753665,5.309274 63.5266357,4.51943254 C63.8773686,3.7290422 64.338577,3.07697017 64.9124061,2.56211869 C65.4851627,2.0472672 66.128173,1.65865862 66.8419735,1.39519517 C67.5552378,1.13173172 68.2749374,1 69,1 C69.7245263,1 70.444226,1.13173172 71.1580265,1.39519517 C71.8712907,1.65865862 72.514301,2.0472672 73.0881301,2.56211869 C73.6608867,3.07697017 74.1226314,3.7290422 74.4739006,4.51943254 C74.8246335,5.309274 75,6.21932065 75,7.24847474 L75,20.7515253 C75,21.805379 74.8246335,22.7209145 74.4739006,23.4986806 C74.1226314,24.2769955 73.6608867,24.9235787 73.0881301,25.4378813 C72.514301,25.9532817 71.8712907,26.3418903 71.1580265,26.6053537 C70.444226,26.8682683 69.7245263,27 69,27 C68.2749374,27 67.5552378,26.8682683 66.8419735,26.6053537 C66.128173,26.3418903 65.4851627,25.9532817 64.9124061,25.4378813 C64.338577,24.9235787 63.8773686,24.2769955 63.5266357,23.4986806 C63.1753665,22.7209145 63,21.805379 63,20.7515253 L63,7.24847474 Z" id="Fill-12"></path>
                <path d="M77.96,0.76 L84.04,0.76 L84.04,2.68 L80,2.68 L80,7 L83.52,7 L83.52,8.92 L80,8.92 L80,15 L77.96,15 L77.96,0.76 Z M87.26,8.98 L84.46,0.76 L86.62,0.76 L88.26,6.42 L88.3,6.42 L89.94,0.76 L92.1,0.76 L89.3,8.98 L89.3,15 L87.26,15 L87.26,8.98 Z" id="FY"></path>
            </g>
        </g>
    </g>
</svg>