<?xml version="1.0" encoding="UTF-8" standalone="no"?>
<svg width="24px" height="24px" viewBox="0 0 24 24" version="1.1" xmlns="http://www.w3.org/2000/svg" xmlns:xlink="http://www.w3.org/1999/xlink">
    <!-- Generator: Sketch 47.1 (45422) - http://www.bohemiancoding.com/sketch -->
    <title>Arrow - Right</title>
    <desc>Created with Sketch.</desc>
    <defs>
        <path d="M9.38069217,0 C9.46569563,0 9.54462623,0.01466261 9.61748634,0.0439882698 C9.69034645,0.0733139296 9.75713388,0.11730176 9.81785064,0.175953079 C9.93928415,0.293255718 10,0.436949296 10,0.607038123 C10,0.77712695 9.93928415,0.920820528 9.81785064,1.03812317 L1.51183971,9.06158358 L9.70856102,16.9794721 C9.82999454,17.0967748 9.89071038,17.2375358 9.89071038,17.4017595 C9.89071038,17.5659832 9.82999454,17.7067443 9.70856102,17.8240469 C9.5871275,17.9413496 9.43837368,18 9.26229508,18 C9.08621648,18 8.93746266,17.9413496 8.81602914,17.8240469 L0.182149362,9.48387097 C0.060715847,9.36656833 0,9.22580727 0,9.06158358 C0,8.89735988 0.060715847,8.75659883 0.182149362,8.63929619 L8.9435337,0.175953079 C9.00425046,0.11730176 9.07407368,0.0733139296 9.15300546,0.0439882698 C9.23193725,0.01466261 9.30783206,0 9.38069217,0 Z" id="path-1"></path>
    </defs>
    <g id="Page-1" stroke="none" stroke-width="1" fill="none" fill-rule="evenodd">
        <g id="Arrow---Right">
            <g transform="translate(7.000000, 3.000000)">
                <mask id="mask-2" fill="white">
                    <use xlink:href="#path-1"></use>
                </mask>
                <use id="Mask" fill="#fff" transform="translate(5.000000, 9.000000) scale(-1, 1) translate(-5.000000, -9.000000) " xlink:href="#path-1"></use>
            </g>
        </g>
    </g>
</svg>