<?xml version="1.0" encoding="UTF-8" standalone="no"?>
<svg width="24px" height="24px" viewBox="0 0 24 24" version="1.1" xmlns="http://www.w3.org/2000/svg" xmlns:xlink="http://www.w3.org/1999/xlink">
    <!-- Generator: Sketch 47.1 (45422) - http://www.bohemiancoding.com/sketch -->
    <title>Arrow - Down</title>
    <desc>Created with Sketch.</desc>
    <defs>
        <path d="M13.3806922,-4 C13.4656956,-4 13.5446262,-3.98533739 13.6174863,-3.95601173 C13.6903464,-3.92668607 13.7571339,-3.88269824 13.8178506,-3.82404692 C13.9392842,-3.70674428 14,-3.5630507 14,-3.39296188 C14,-3.22287305 13.9392842,-3.07917947 13.8178506,-2.96187683 L5.51183971,5.06158358 L13.708561,12.9794721 C13.8299945,13.0967748 13.8907104,13.2375358 13.8907104,13.4017595 C13.8907104,13.5659832 13.8299945,13.7067443 13.708561,13.8240469 C13.5871275,13.9413496 13.4383737,14 13.2622951,14 C13.0862165,14 12.9374627,13.9413496 12.8160291,13.8240469 L4.18214936,5.48387097 C4.06071585,5.36656833 4,5.22580727 4,5.06158358 C4,4.89735988 4.06071585,4.75659883 4.18214936,4.63929619 L12.9435337,-3.82404692 C13.0042505,-3.88269824 13.0740737,-3.92668607 13.1530055,-3.95601173 C13.2319372,-3.98533739 13.3078321,-4 13.3806922,-4 Z" id="path-1"></path>
    </defs>
    <g id="Page-1" stroke="none" stroke-width="1" fill="none" fill-rule="evenodd">
        <g id="Arrow---Down">
            <g transform="translate(3.000000, 7.000000)">
                <mask id="mask-2" fill="white">
                    <use xlink:href="#path-1"></use>
                </mask>
                <use id="Mask" fill="#ffffff" transform="translate(9.000000, 5.000000) scale(-1, 1) rotate(-90.000000) translate(-9.000000, -5.000000) " xlink:href="#path-1"></use>
            </g>
        </g>
    </g>
</svg>