<?xml version="1.0" encoding="UTF-8" standalone="no"?>
<svg width="24px" height="24px" viewBox="0 0 24 24" version="1.1" xmlns="http://www.w3.org/2000/svg" xmlns:xlink="http://www.w3.org/1999/xlink">
    <!-- Generator: Sketch 47.1 (45422) - http://www.bohemiancoding.com/sketch -->
    <title>Arrow</title>
    <desc>Created with Sketch.</desc>
    <defs>
        <path d="M0.81723986,5.19512195 L11.2256364,5.19512195 L7.30888791,1.3902439 C7.13964484,1.23170652 7.05502458,1.04268402 7.05502458,0.823170732 C7.05502458,0.603657439 7.13057838,0.411586189 7.28168826,0.24695122 C7.43279815,0.08231625 7.61714944,0 7.83474766,0 C8.05234589,0 8.24576364,0.07317 8.41500671,0.219512195 L13.7461367,5.41463415 C13.9153797,5.57317152 14,5.76524277 14,5.99085366 C14,6.21646454 13.9153797,6.40853579 13.7461367,6.56707317 L8.37874052,11.7804878 C8.22158624,11.92683 8.0402571,12 7.83474766,12 C7.60506065,12 7.4116429,11.914635 7.25448862,11.7439024 C7.09733434,11.5853651 7.02178054,11.3963426 7.02782493,11.1768293 C7.03386933,10.957316 7.11546744,10.7682935 7.27262172,10.6097561 L11.1893703,6.80487805 L0.799106765,6.80487805 C0.593597326,6.80487805 0.412268188,6.73170805 0.255113911,6.58536585 C0.0979596347,6.43902366 0.0133393705,6.26219616 0.00125057996,6.05487805 C-0.0108382105,5.82316957 0.0647155968,5.62195207 0.227914269,5.45121951 C0.391112941,5.28048695 0.58755284,5.19512195 0.81723986,5.19512195 Z" id="path-1"></path>
    </defs>
    <g id="Page-1" stroke="none" stroke-width="1" fill="none" fill-rule="evenodd">
        <g id="Arrow">
            <g transform="translate(5.000000, 6.000000)">
                <mask id="mask-2" fill="white">
                    <use xlink:href="#path-1"></use>
                </mask>
                <use id="Mask" fill="#ffffff" xlink:href="#path-1"></use>
            </g>
        </g>
    </g>
</svg>