<?xml version="1.0" encoding="utf-8"?>
<!-- Generator: Adobe Illustrator 22.0.1, SVG Export Plug-In . SVG Version: 6.00 Build 0)  -->
<svg width="24px" height="24px" version="1.1" id="Layer_1" xmlns="http://www.w3.org/2000/svg" xmlns:xlink="http://www.w3.org/1999/xlink" x="0px" y="0px"
	 viewBox="0 0 24 24" style="enable-background:new 0 0 24 24;" xml:space="preserve">
<style type="text/css">
	.st0{fill:#FFFFFF;}
</style>
<title>Arrow</title>
<desc>Created with Sketch.</desc>
<g id="Page-1">
	<g id="Arrow">
		<g transform="translate(5.000000, 6.000000)">
			<g id="Mask">
				<path id="path-1_1_" class="st0" d="M13.8,5.5C13.9,5.6,14,5.8,14,6.1c0,0.2-0.1,0.4-0.3,0.5c-0.2,0.1-0.3,0.2-0.5,0.2H2.8
					l3.9,3.8C6.9,10.8,7,11,7,11.2s-0.1,0.4-0.2,0.6C6.6,11.9,6.4,12,6.2,12c-0.2,0-0.4-0.1-0.5-0.2L0.3,6.6C0.1,6.4,0,6.2,0,6
					c0-0.2,0.1-0.4,0.3-0.6l5.3-5.2C5.8,0.1,5.9,0,6.2,0c0.2,0,0.4,0.1,0.6,0.2c0.2,0.2,0.2,0.4,0.2,0.6S6.9,1.2,6.7,1.4L2.8,5.2
					h10.4C13.4,5.2,13.6,5.3,13.8,5.5z"/>
			</g>
		</g>
	</g>
</g>
</svg>
