<?xml version="1.0" encoding="UTF-8" standalone="no"?>
<svg width="24px" height="24px" viewBox="0 0 24 24" version="1.1" xmlns="http://www.w3.org/2000/svg" xmlns:xlink="http://www.w3.org/1999/xlink">
    <!-- Generator: Sketch 47.1 (45422) - http://www.bohemiancoding.com/sketch -->
    <title>Calendar</title>
    <desc>Created with Sketch.</desc>
    <defs>
        <path d="M18.75,1.875 C19.1015643,1.875 19.3977853,1.9954415 19.6386719,2.23632812 C19.8795585,2.47721475 20,2.77343574 20,3.125 L20,18.75 C20,19.0885434 19.8795585,19.3815092 19.6386719,19.6289062 C19.3977853,19.8763033 19.1015643,20 18.75,20 L1.25,20 C0.898435742,20 0.602214746,19.8763033 0.361328125,19.6289062 C0.120441504,19.3815092 0,19.0885434 0,18.75 L0,3.125 C0,2.77343574 0.120441504,2.47721475 0.361328125,2.23632812 C0.602214746,1.9954415 0.898435742,1.875 1.25,1.875 L6.25,1.875 L6.25,0.625 C6.25,0.45572832 6.31184834,0.30924541 6.43554688,0.185546875 C6.55924541,0.0618483398 6.70572832,0 6.875,0 C7.04427168,0 7.19075459,0.0618483398 7.31445312,0.185546875 C7.43815166,0.30924541 7.5,0.45572832 7.5,0.625 L7.5,1.875 L12.5,1.875 L12.5,0.625 C12.5,0.45572832 12.5618483,0.30924541 12.6855469,0.185546875 C12.8092454,0.0618483398 12.9557283,0 13.125,0 C13.2942717,0 13.4407546,0.0618483398 13.5644531,0.185546875 C13.6881517,0.30924541 13.75,0.45572832 13.75,0.625 L13.75,1.875 L18.75,1.875 Z M18.75,18.75 L18.75,3.125 L13.75,3.125 L13.75,3.75 C13.75,3.91927168 13.6881517,4.06575459 13.5644531,4.18945312 C13.4407546,4.31315166 13.2942717,4.375 13.125,4.375 C12.9557283,4.375 12.8092454,4.31315166 12.6855469,4.18945312 C12.5618483,4.06575459 12.5,3.91927168 12.5,3.75 L12.5,3.125 L7.5,3.125 L7.5,3.75 C7.5,3.91927168 7.43815166,4.06575459 7.31445312,4.18945312 C7.19075459,4.31315166 7.04427168,4.375 6.875,4.375 C6.70572832,4.375 6.55924541,4.31315166 6.43554688,4.18945312 C6.31184834,4.06575459 6.25,3.91927168 6.25,3.75 L6.25,3.125 L1.25,3.125 L1.25,18.75 L18.75,18.75 Z M14.375,10 C14.2057283,10 14.0592454,9.93815166 13.9355469,9.81445312 C13.8118483,9.69075459 13.75,9.54427168 13.75,9.375 L13.75,8.125 C13.75,7.95572832 13.8118483,7.80924541 13.9355469,7.68554688 C14.0592454,7.56184834 14.2057283,7.5 14.375,7.5 L15.625,7.5 C15.7942717,7.5 15.9407546,7.56184834 16.0644531,7.68554688 C16.1881517,7.80924541 16.25,7.95572832 16.25,8.125 L16.25,9.375 C16.25,9.54427168 16.1881517,9.69075459 16.0644531,9.81445312 C15.9407546,9.93815166 15.7942717,10 15.625,10 L14.375,10 Z M14.375,15 C14.2057283,15 14.0592454,14.9381517 13.9355469,14.8144531 C13.8118483,14.6907546 13.75,14.5442717 13.75,14.375 L13.75,13.125 C13.75,12.9557283 13.8118483,12.8092454 13.9355469,12.6855469 C14.0592454,12.5618483 14.2057283,12.5 14.375,12.5 L15.625,12.5 C15.7942717,12.5 15.9407546,12.5618483 16.0644531,12.6855469 C16.1881517,12.8092454 16.25,12.9557283 16.25,13.125 L16.25,14.375 C16.25,14.5442717 16.1881517,14.6907546 16.0644531,14.8144531 C15.9407546,14.9381517 15.7942717,15 15.625,15 L14.375,15 Z M10.625,12.5 C10.7942717,12.5 10.9407546,12.5618483 11.0644531,12.6855469 C11.1881517,12.8092454 11.25,12.9557283 11.25,13.125 L11.25,14.375 C11.25,14.5442717 11.1881517,14.6907546 11.0644531,14.8144531 C10.9407546,14.9381517 10.7942717,15 10.625,15 L9.375,15 C9.20572832,15 9.05924541,14.9381517 8.93554688,14.8144531 C8.81184834,14.6907546 8.75,14.5442717 8.75,14.375 L8.75,13.125 C8.75,12.9557283 8.81184834,12.8092454 8.93554688,12.6855469 C9.05924541,12.5618483 9.20572832,12.5 9.375,12.5 L10.625,12.5 Z M10.625,7.5 C10.7942717,7.5 10.9407546,7.56184834 11.0644531,7.68554688 C11.1881517,7.80924541 11.25,7.95572832 11.25,8.125 L11.25,9.375 C11.25,9.54427168 11.1881517,9.69075459 11.0644531,9.81445312 C10.9407546,9.93815166 10.7942717,10 10.625,10 L9.375,10 C9.20572832,10 9.05924541,9.93815166 8.93554688,9.81445312 C8.81184834,9.69075459 8.75,9.54427168 8.75,9.375 L8.75,8.125 C8.75,7.95572832 8.81184834,7.80924541 8.93554688,7.68554688 C9.05924541,7.56184834 9.20572832,7.5 9.375,7.5 L10.625,7.5 Z M5.625,7.5 C5.79427168,7.5 5.94075459,7.56184834 6.06445312,7.68554688 C6.18815166,7.80924541 6.25,7.95572832 6.25,8.125 L6.25,9.375 C6.25,9.54427168 6.18815166,9.69075459 6.06445312,9.81445312 C5.94075459,9.93815166 5.79427168,10 5.625,10 L4.375,10 C4.20572832,10 4.05924541,9.93815166 3.93554688,9.81445312 C3.81184834,9.69075459 3.75,9.54427168 3.75,9.375 L3.75,8.125 C3.75,7.95572832 3.81184834,7.80924541 3.93554688,7.68554688 C4.05924541,7.56184834 4.20572832,7.5 4.375,7.5 L5.625,7.5 Z M5.625,12.5 C5.79427168,12.5 5.94075459,12.5618483 6.06445312,12.6855469 C6.18815166,12.8092454 6.25,12.9557283 6.25,13.125 L6.25,14.375 C6.25,14.5442717 6.18815166,14.6907546 6.06445312,14.8144531 C5.94075459,14.9381517 5.79427168,15 5.625,15 L4.375,15 C4.20572832,15 4.05924541,14.9381517 3.93554688,14.8144531 C3.81184834,14.6907546 3.75,14.5442717 3.75,14.375 L3.75,13.125 C3.75,12.9557283 3.81184834,12.8092454 3.93554688,12.6855469 C4.05924541,12.5618483 4.20572832,12.5 4.375,12.5 L5.625,12.5 Z" id="path-1"></path>
    </defs>
    <g id="Page-1" stroke="none" stroke-width="1" fill="none" fill-rule="evenodd">
        <g id="Calendar">
            <g transform="translate(2.000000, 2.000000)">
                <mask id="mask-2" fill="white">
                    <use xlink:href="#path-1"></use>
                </mask>
                <use id="Mask" fill="#ffffff" xlink:href="#path-1"></use>
            </g>
        </g>
    </g>
</svg>