<?xml version="1.0" encoding="UTF-8" standalone="no"?>
<svg width="24px" height="24px" viewBox="0 0 24 24" version="1.1" xmlns="http://www.w3.org/2000/svg" xmlns:xlink="http://www.w3.org/1999/xlink">
    <!-- Generator: Sketch 47.1 (45422) - http://www.bohemiancoding.com/sketch -->
    <title>Check</title>
    <desc>Created with Sketch.</desc>
    <defs>
        <path d="M5.58528692,11.9140625 C5.54622423,11.9140625 5.51367247,11.9075521 5.48763067,11.8945312 C5.2272127,11.8684895 5.03190216,11.7382824 4.90169317,11.5039062 L0.104166898,6.07421875 C-2.89351534e-07,5.87890527 -0.0260416956,5.67708438 0.0260418981,5.46875 C0.0781254919,5.26041563 0.198566996,5.10416719 0.387370023,5 C0.57617305,4.89583281 0.774738773,4.87304658 0.983073148,4.93164062 C1.19140752,4.99023467 1.35416631,5.11067617 1.4713544,5.29296875 L5.76106817,9.84375 L15.3509119,0.234375 C15.4941418,0.0781242187 15.6764316,0 15.8977869,0 C16.1191422,0 16.3046872,0.074869043 16.4544275,0.224609375 C16.6041679,0.374349707 16.6790369,0.559894727 16.6790369,0.78125 C16.6790369,1.00260527 16.6009127,1.18489512 16.4446619,1.328125 L6.17122442,11.640625 L6.13216192,11.6796875 C5.98893204,11.8359383 5.80664219,11.9140625 5.58528692,11.9140625 Z" id="path-1"></path>
    </defs>
    <g id="Page-1" stroke="none" stroke-width="1" fill="none" fill-rule="evenodd">
        <g id="Check">
            <g transform="translate(4.000000, 6.000000)">
                <mask id="mask-2" fill="white">
                    <use xlink:href="#path-1"></use>
                </mask>
                <use id="Mask" fill="#ffffff" xlink:href="#path-1"></use>
            </g>
        </g>
    </g>
</svg>