<?xml version="1.0" encoding="UTF-8" standalone="no"?>
<svg width="24px" height="24px" viewBox="0 0 24 24" version="1.1" xmlns="http://www.w3.org/2000/svg" xmlns:xlink="http://www.w3.org/1999/xlink">
    <!-- Generator: Sketch 47.1 (45422) - http://www.bohemiancoding.com/sketch -->
    <title>Documents</title>
    <desc>Created with Sketch.</desc>
    <defs>
        <path d="M15.0898438,6.3984375 C15.3502617,6.65885547 15.4804688,6.98437305 15.4804688,7.375 L15.4804688,19.09375 C15.4804688,19.484377 15.3470065,19.8164049 15.0800781,20.0898438 C14.8131497,20.3632826 14.484377,20.5 14.09375,20.5 L1.92578125,20.5 C1.5351543,20.5 1.19987119,20.3632826 0.919921875,20.0898438 C0.639972559,19.8164049 0.5,19.484377 0.5,19.09375 L0.5,1.90625 C0.5,1.51562305 0.639972559,1.18359512 0.919921875,0.91015625 C1.19987119,0.636717383 1.5351543,0.5 1.92578125,0.5 L8.6640625,0.5 C8.85937598,0.5 9.04817617,0.539062109 9.23046875,0.6171875 C9.25651055,0.630208398 9.2760416,0.643229102 9.2890625,0.65625 C9.3020834,0.65625 9.3281248,0.669270703 9.3671875,0.6953125 C9.47135469,0.760416992 9.56900996,0.832030859 9.66015625,0.91015625 L15.0898438,6.3984375 Z M9.38671875,2.6484375 L9.38671875,6.59375 L13.3125,6.59375 L9.38671875,2.6484375 Z M14.0742188,19.09375 L14.0742188,8 L9.40625,8 C9.01562305,8 8.68033994,7.86328262 8.40039062,7.58984375 C8.12044131,7.31640488 7.98046875,6.98437695 7.98046875,6.59375 L7.98046875,1.90625 L1.90625,1.90625 L1.90625,19.09375 L14.0742188,19.09375 Z M9.20117188,10.4511719 C9.06445244,10.5878913 8.89843848,10.65625 8.703125,10.65625 L3.703125,10.65625 C3.50781152,10.65625 3.34179756,10.5878913 3.20507812,10.4511719 C3.06835869,10.3144524 3,10.1484385 3,9.953125 C3,9.75781152 3.06835869,9.59179756 3.20507812,9.45507812 C3.34179756,9.31835869 3.50781152,9.25 3.703125,9.25 L8.703125,9.25 C8.89843848,9.25 9.06445244,9.31835869 9.20117188,9.45507812 C9.33789131,9.59179756 9.40625,9.75781152 9.40625,9.953125 C9.40625,10.1484385 9.33789131,10.3144524 9.20117188,10.4511719 Z M12.9511719,13.5761719 C12.8144524,13.7128913 12.6484385,13.78125 12.453125,13.78125 L3.703125,13.78125 C3.50781152,13.78125 3.34179756,13.7128913 3.20507812,13.5761719 C3.06835869,13.4394524 3,13.2734385 3,13.078125 C3,12.8828115 3.06835869,12.7167976 3.20507812,12.5800781 C3.34179756,12.4433587 3.50781152,12.375 3.703125,12.375 L12.453125,12.375 C12.6484385,12.375 12.8144524,12.4433587 12.9511719,12.5800781 C13.0878913,12.7167976 13.15625,12.8828115 13.15625,13.078125 C13.15625,13.2734385 13.0878913,13.4394524 12.9511719,13.5761719 Z M10.4511719,16.7011719 C10.3144524,16.8378913 10.1484385,16.90625 9.953125,16.90625 L3.703125,16.90625 C3.50781152,16.90625 3.34179756,16.8378913 3.20507812,16.7011719 C3.06835869,16.5644524 3,16.3984385 3,16.203125 C3,16.0078115 3.06835869,15.8417976 3.20507812,15.7050781 C3.34179756,15.5683587 3.50781152,15.5 3.703125,15.5 L9.953125,15.5 C10.1484385,15.5 10.3144524,15.5683587 10.4511719,15.7050781 C10.5878913,15.8417976 10.65625,16.0078115 10.65625,16.203125 C10.65625,16.3984385 10.5878913,16.5644524 10.4511719,16.7011719 Z" id="path-1"></path>
    </defs>
    <g id="Page-1" stroke="none" stroke-width="1" fill="none" fill-rule="evenodd">
        <g id="Documents">
            <g transform="translate(4.000000, 2.000000)">
                <mask id="mask-2" fill="white">
                    <use xlink:href="#path-1"></use>
                </mask>
                <use id="Mask" fill="#ffffff" xlink:href="#path-1"></use>
            </g>
        </g>
    </g>
</svg>