<?xml version="1.0" encoding="UTF-8" standalone="no"?>
<svg width="24px" height="24px" viewBox="0 0 24 24" version="1.1" xmlns="http://www.w3.org/2000/svg" xmlns:xlink="http://www.w3.org/1999/xlink">
    <!-- Generator: Sketch 47.1 (45422) - http://www.bohemiancoding.com/sketch -->
    <title>Edit</title>
    <desc>Created with Sketch.</desc>
    <defs>
        <path d="M16.9298246,0.894736842 C17.2807036,1.22222386 17.5438589,1.5643257 17.7192983,1.92105263 C17.8947378,2.27777956 17.9883041,2.63742509 18.0000001,3 C18.0116961,3.38596684 17.9298255,3.76315605 17.7543861,4.13157895 C17.5789466,4.50000184 17.3216392,4.85964737 16.9824562,5.21052632 C16.8187127,5.38596579 16.1637485,6.04093 15.0175439,7.1754386 C13.8713394,8.30994719 12.6345096,9.53508114 11.3070176,10.8508772 C9.97952561,12.1666732 8.76023956,13.3742635 7.64912289,14.4736842 C6.53800623,15.5731049 5.92982518,16.1754381 5.82456149,16.2807018 C5.7894736,16.3157896 5.75146228,16.3450291 5.7105264,16.3684211 C5.66959053,16.391813 5.62573132,16.4093567 5.57894746,16.4210526 C5.41520395,16.4678365 5.07017816,16.5760225 4.54385974,16.745614 C4.01754132,16.9152055 3.47661105,17.0877184 2.92105272,17.2631579 C2.36549439,17.4385974 1.86549939,17.5994145 1.42105272,17.745614 C0.976606053,17.8918136 0.748538158,17.9649123 0.736842193,17.9649123 C0.713450263,17.9766082 0.687134737,17.9853801 0.657894825,17.9912281 C0.628654912,17.9970761 0.596491491,18 0.561403596,18 C0.491227807,18 0.42105307,17.9853803 0.350877281,17.9561404 C0.280701491,17.9269004 0.222222544,17.8830412 0.175438684,17.8245614 C0.0935669298,17.7543856 0.0409358772,17.6666672 0.0175439474,17.5614035 C-0.00584798246,17.4561398 -0.00584798246,17.3508777 0.0175439474,17.245614 C0.0292399123,17.2339181 0.0994146491,17.014622 0.228070263,16.5877193 C0.356725877,16.1608166 0.505847193,15.6666695 0.675438684,15.1052632 C0.845030175,14.5438568 1.00877123,13.9970787 1.16666675,13.4649123 C1.32456228,12.9327459 1.43274833,12.5497088 1.49122816,12.3157895 C1.51462009,12.2690056 1.53801167,12.2251464 1.5614036,12.1842105 C1.58479553,12.1432746 1.614035,12.1052633 1.64912289,12.0701754 L7.08771939,6.63157895 C8.45614728,5.26315105 9.72221649,3.99415789 10.885965,2.8245614 C12.0497135,1.65496491 12.6725143,1.03508807 12.7543861,0.964912281 C12.8713457,0.847952632 13.1228052,0.657896053 13.508772,0.394736842 C13.8947389,0.131577632 14.3684183,0 14.9298246,0 C15.2923996,0 15.6403493,0.0760226316 15.9736843,0.228070175 C16.3070193,0.380117719 16.6257296,0.602337719 16.9298246,0.894736842 Z M12.5789475,2.75438596 C12.0292371,3.29240035 11.3274897,3.98829982 10.4736843,4.84210526 C9.61987886,5.6959107 8.7397707,6.57894281 7.83333342,7.49122807 C6.92689614,8.40351333 6.05848377,9.27484965 5.22807026,10.1052632 L3.24561412,12.0877193 C3.47953342,12.181287 3.73976474,12.3157886 4.02631588,12.4912281 C4.31286702,12.6666675 4.60233781,12.9005833 4.89473693,13.1929825 C5.12865623,13.4385977 5.3245607,13.6871332 5.48245623,13.9385965 C5.64035175,14.1900597 5.76608149,14.4210516 5.85964921,14.6315789 C6.35087974,14.1403484 7.00876789,13.4883082 7.83333342,12.6754386 C8.65789895,11.862569 9.52046342,11.0087764 10.4210527,10.1140351 C11.321642,9.21929377 12.1959023,8.3508814 13.0438597,7.50877193 C13.8918172,6.66666246 14.5906406,5.97661088 15.140351,5.43859649 C15.128655,5.34502877 15.0614042,5.12573272 14.9385966,4.78070175 C14.8157889,4.43567079 14.5789492,4.08772105 14.2280703,3.73684211 C13.8771913,3.39765912 13.5497092,3.15789544 13.2456141,3.01754386 C12.941519,2.87719228 12.719299,2.78947386 12.5789475,2.75438596 Z M2.4736843,13.0350877 C2.34502868,13.4678384 2.16666789,14.0409321 1.93859658,14.754386 C1.71052526,15.4678398 1.51462079,16.0877167 1.35087728,16.6140351 C1.90058763,16.4385956 2.53800816,16.2280714 3.26315798,15.9824561 C3.98830781,15.7368409 4.54385781,15.5497082 4.92982465,15.4210526 C4.87134482,15.2456132 4.77777851,15.0292411 4.64912289,14.7719298 C4.52046728,14.5146186 4.33333465,14.2631591 4.08771939,14.0175439 C3.76023237,13.6900568 3.45029395,13.4532171 3.15789482,13.3070175 C2.8654957,13.160818 2.63742781,13.0701756 2.4736843,13.0350877 Z M16.1578948,4.40350877 C16.3918141,4.16958947 16.567251,3.93567368 16.6842106,3.70175439 C16.8011703,3.46783509 16.8596492,3.24561509 16.8596492,3.03508772 C16.8596492,2.82456035 16.7982463,2.60818825 16.6754387,2.38596491 C16.5526311,2.16374158 16.3742703,1.94152158 16.140351,1.71929825 C15.9532155,1.53216281 15.7573111,1.39181333 15.5526317,1.29824561 C15.3479523,1.20467789 15.140352,1.15789474 14.9298246,1.15789474 C14.5672497,1.15789474 14.2543874,1.25146105 13.9912282,1.43859649 C13.7280689,1.62573193 13.5847955,1.73684193 13.5614036,1.77192982 L13.4736843,1.85964912 C13.6959076,1.95321684 13.9415192,2.08479447 14.2105264,2.25438596 C14.4795336,2.42397746 14.7543846,2.6491214 15.0350878,2.92982456 C15.304095,3.19883175 15.5204671,3.47368281 15.6842106,3.75438596 C15.8479541,4.03508912 15.9707599,4.29239649 16.0526317,4.52631579 C16.0760236,4.50292386 16.0964912,4.47953228 16.1140352,4.45614035 C16.1315791,4.43274842 16.1461989,4.41520474 16.1578948,4.40350877 Z" id="path-1"></path>
    </defs>
    <g id="Page-1" stroke="none" stroke-width="1" fill="none" fill-rule="evenodd">
        <g id="Edit">
            <g transform="translate(3.000000, 3.000000)">
                <mask id="mask-2" fill="white">
                    <use xlink:href="#path-1"></use>
                </mask>
                <use id="Mask" fill="#ffffff" xlink:href="#path-1"></use>
            </g>
        </g>
    </g>
</svg>