<?xml version="1.0" encoding="UTF-8" standalone="no"?>
<svg width="24px" height="24px" viewBox="0 0 24 24" version="1.1" xmlns="http://www.w3.org/2000/svg" xmlns:xlink="http://www.w3.org/1999/xlink">
    <!-- Generator: Sketch 47.1 (45422) - http://www.bohemiancoding.com/sketch -->
    <title>filter</title>
    <desc>Created with Sketch.</desc>
    <defs>
        <path d="M17.966305,1.89950718 C17.9011615,2.21448625 17.7513337,2.48767829 17.5168171,2.71909149 L11.6695668,7.75230341 L11.6695668,17.3057639 C11.6695668,17.6271711 11.519739,17.8457247 11.220079,17.9614313 C11.1288781,17.9871439 11.0441928,18 10.9660207,18 C10.7575615,18 10.588191,17.9292915 10.457904,17.7878723 L7.01443639,15.3001928 C6.87112071,15.17163 6.79946395,15.0109288 6.79946395,14.8180844 L6.79946395,7.79087208 L0.463639905,2.71909149 C0.242152043,2.48767829 0.0988385176,2.21448625 0.0336950288,1.89950718 C-0.03144846,1.5845281 -0.00213432976,1.2759818 0.121638299,0.97385901 C0.245410928,0.671736222 0.444095588,0.433898447 0.717698242,0.260338547 C0.991300895,0.086778648 1.29095645,0 1.61667389,0 L16.3833261,0 C16.7090436,0 17.0086991,0.086778648 17.2823018,0.260338547 C17.5559044,0.433898447 17.7545891,0.671736222 17.8783617,0.97385901 C18.0021343,1.2759818 18.0314485,1.5845281 17.966305,1.89950718 Z M16.5201268,1.73559031 C16.5852702,1.67130887 16.6015559,1.59738632 16.5689841,1.51382044 C16.5364124,1.43025456 16.474527,1.38847225 16.3833261,1.38847225 L1.61667389,1.38847225 C1.52547301,1.38847225 1.4603305,1.43025456 1.4212444,1.51382044 C1.38215831,1.59738632 1.39518681,1.67130887 1.4603303,1.73559031 L8.01112678,7.01949861 C8.14141376,7.1480615 8.20655627,7.3087627 8.20655627,7.50160703 L8.20655627,14.5288194 L10.2624745,15.6473109 L10.2624745,7.46303835 C10.2624745,7.27019402 10.327617,7.10949282 10.457904,6.98092993 L16.5201268,1.73559031 Z" id="path-1"></path>
    </defs>
    <g id="Page-1" stroke="none" stroke-width="1" fill="none" fill-rule="evenodd">
        <g id="filter">
            <g transform="translate(3.000000, 3.000000)">
                <mask id="mask-2" fill="white">
                    <use xlink:href="#path-1"></use>
                </mask>
                <use id="Mask" fill="#ffffff" xlink:href="#path-1"></use>
            </g>
        </g>
    </g>
</svg>