<?xml version="1.0" encoding="UTF-8"?>
<svg width="19px" height="17px" viewBox="0 0 19 17" version="1.1" xmlns="http://www.w3.org/2000/svg" xmlns:xlink="http://www.w3.org/1999/xlink">
    <!-- Generator: Sketch 52.6 (67491) - http://www.bohemiancoding.com/sketch -->
    <title>Picture - simple-line-icons Copy</title>
    <desc>Created with Sketch.</desc>
    <g id="VD-Screens" stroke="none" stroke-width="1" fill="none" fill-rule="evenodd">
        <g id="Book-a-Room" transform="translate(-290.000000, -108.000000)" fill="#FFFFFF">
            <g id="Group-3" transform="translate(0.000000, 107.000000)">
                <path d="M307.8125,1.671875 C308.134116,1.671875 308.412434,1.78938685 308.647461,2.02441406 C308.882488,2.25944128 309,2.53775881 309,2.859375 L309,16.515625 C309,16.8372412 308.882488,17.1155587 308.647461,17.3505859 C308.412434,17.5856132 308.134116,17.703125 307.8125,17.703125 L291.1875,17.703125 C290.865884,17.703125 290.587566,17.5856132 290.352539,17.3505859 C290.117512,17.1155587 290,16.8372412 290,16.515625 L290,2.859375 C290,2.53775881 290.117512,2.25944128 290.352539,2.02441406 C290.587566,1.78938685 290.865884,1.671875 291.1875,1.671875 L307.8125,1.671875 Z M307.8125,16.515625 L307.8125,15.4208984 L307.784668,15.3930664 C307.778483,15.3868815 307.769206,15.3837891 307.756836,15.3837891 L303.860352,11.3574219 L301.689453,13.3242188 C301.553385,13.4231776 301.408041,13.4757487 301.253418,13.4819336 C301.098795,13.4881185 300.972006,13.4293626 300.873047,13.3056641 L295.956055,8.40722656 L291.1875,13.0273438 L291.1875,16.515625 L307.8125,16.515625 Z M307.8125,13.7324219 L307.8125,2.859375 L291.1875,2.859375 L291.1875,11.3574219 L295.529297,7.14550781 C295.591146,7.08365854 295.659179,7.04036471 295.733398,7.015625 C295.807618,6.99088529 295.88802,6.97851562 295.974609,6.97851562 C296.048828,6.97851562 296.123047,6.99707013 296.197266,7.03417969 C296.271485,7.07128925 296.339518,7.12695275 296.401367,7.20117188 L301.299805,12.0625 L303.544922,10.1142578 C303.66862,10.015299 303.801594,9.97200515 303.943848,9.984375 C304.086101,9.99674485 304.21289,10.0524084 304.324219,10.1513672 L307.8125,13.7324219 Z M303.65625,7.609375 C303.334634,7.609375 303.056316,7.49495557 302.821289,7.26611328 C302.586262,7.03727099 302.46875,6.75586104 302.46875,6.421875 C302.46875,6.10025881 302.586262,5.82194128 302.821289,5.58691406 C303.056316,5.35188685 303.334634,5.234375 303.65625,5.234375 C303.977866,5.234375 304.256184,5.35188685 304.491211,5.58691406 C304.726238,5.82194128 304.84375,6.10025881 304.84375,6.421875 C304.84375,6.75586104 304.726238,7.03727099 304.491211,7.26611328 C304.256184,7.49495557 303.977866,7.609375 303.65625,7.609375 Z" id="Picture---simple-line-icons-Copy"></path>
            </g>
        </g>
    </g>
</svg>