<?xml version="1.0" encoding="UTF-8" standalone="no"?>
<svg width="24px" height="24px" viewBox="0 0 24 24" version="1.1" xmlns="http://www.w3.org/2000/svg" xmlns:xlink="http://www.w3.org/1999/xlink">
    <!-- Generator: Sketch 47.1 (45422) - http://www.bohemiancoding.com/sketch -->
    <title>Search</title>
    <desc>Created with Sketch.</desc>
    <defs>
        <path d="M19.7767857,18.6160714 C19.925596,18.7797627 20,18.9732132 20,19.1964286 C20,19.419644 19.925596,19.6130944 19.7767857,19.7767857 C19.6130944,19.925596 19.419644,20 19.1964286,20 C18.9732132,20 18.7872031,19.925596 18.6383929,19.7767857 L14.0401786,15.1785714 C12.4479087,16.4881018 10.6250103,17.1428571 8.57142857,17.1428571 C6.20534531,17.1428571 4.18527623,16.3058119 2.51116071,14.6316964 C0.837045201,12.9575809 0,10.9375118 0,8.57142857 C0,6.20534531 0.837045201,4.18527623 2.51116071,2.51116071 C4.18527623,0.837045201 6.20534531,0 8.57142857,0 C10.9375118,0 12.9575809,0.837045201 14.6316964,2.51116071 C16.3058119,4.18527623 17.1428571,6.20534531 17.1428571,8.57142857 C17.1428571,10.6250103 16.4881018,12.4479087 15.1785714,14.0401786 L19.7767857,18.6160714 Z M11.2723214,15 C12.1056589,14.6428554 12.8459789,14.1406282 13.4933036,13.4933036 C14.1406282,12.8459789 14.6428554,12.1056589 15,11.2723214 C15.3571446,10.4241029 15.5357143,9.52381429 15.5357143,8.57142857 C15.5357143,7.61904286 15.3571446,6.71875424 15,5.87053571 C14.6428554,5.03719821 14.1406282,4.29687824 13.4933036,3.64955357 C12.8459789,3.00222891 12.1056589,2.50000179 11.2723214,2.14285714 C10.4241029,1.7857125 9.52381429,1.60714286 8.57142857,1.60714286 C7.61904286,1.60714286 6.71875424,1.7857125 5.87053571,2.14285714 C5.03719821,2.50000179 4.29687824,3.00222891 3.64955357,3.64955357 C3.00222891,4.29687824 2.50744219,5.03719821 2.16517857,5.87053571 C1.7931529,6.71875424 1.60714286,7.61904286 1.60714286,8.57142857 C1.60714286,9.52381429 1.7931529,10.4241029 2.16517857,11.2723214 C2.50744219,12.1056589 3.00222891,12.8459789 3.64955357,13.4933036 C4.29687824,14.1406282 5.03719821,14.6428554 5.87053571,15 C6.71875424,15.3571446 7.61904286,15.5357143 8.57142857,15.5357143 C9.52381429,15.5357143 10.4241029,15.3571446 11.2723214,15 Z" id="path-1"></path>
    </defs>
    <g id="Page-1" stroke="none" stroke-width="1" fill="none" fill-rule="evenodd">
        <g id="Search">
            <g transform="translate(2.000000, 2.000000)">
                <mask id="mask-2" fill="white">
                    <use xlink:href="#path-1"></use>
                </mask>
                <use id="Mask" fill="#ffffff" xlink:href="#path-1"></use>
            </g>
        </g>
    </g>
</svg>